<?xml version="1.0" encoding="UTF-8"?>
<!DOCTYPE svg  PUBLIC '-//W3C//DTD SVG 1.1//EN'  'http://www.w3.org/Graphics/SVG/1.1/DTD/svg11.dtd'>
<svg clip-rule="evenodd" fill-rule="evenodd" stroke-linejoin="round" stroke-miterlimit="2" version="1.1" viewBox="0 0 337 162" xml:space="preserve" xmlns="http://www.w3.org/2000/svg">
    <path d="m263.13 0l34.455 76.127-119.25 5.828 84.797-81.955z" fill="#bee3f8"/>
    <path d="m249.7 0l28.129 71.215h-109.4l81.275-71.215z" fill="#90cdf4"/>
    <g fill="#F7FAFC" fill-rule="nonzero">
        <path d="m0 142.25l7.031-44.384h15.03l-1.099 6.943c2.432-2.93 4.849-5.054 7.251-6.372s5.024-1.978 7.866-1.978c4.6 0 8.167 1.238 10.701 3.714 2.534 2.475 3.801 5.94 3.801 10.393 0 1.523-0.264 4.058-0.791 7.602-0.029 0.323-0.059 0.586-0.088 0.791l-3.691 23.291h-15.689l3.692-23.51c0.117-0.674 0.212-1.333 0.285-1.978 0.074-0.644 0.11-1.201 0.11-1.67 0-1.933-0.513-3.398-1.538-4.394s-2.534-1.494-4.526-1.494c-2.725 0-4.856 0.981-6.394 2.944s-2.644 5.098-3.318 9.404l-3.164 20.698h-15.469z"/>
        <path d="m83.408 109.11c-3.047 0-5.632 1.281-7.756 3.845-2.124 2.563-3.186 5.691-3.186 9.382 0 2.725 0.776 4.893 2.329 6.504s3.618 2.417 6.196 2.417c3.252 0 5.926-1.238 8.02-3.713 2.095-2.476 3.142-5.647 3.142-9.514 0-2.754-0.783-4.93-2.351-6.526-1.567-1.597-3.698-2.395-6.394-2.395zm-25.971 13.051c0-7.529 2.46-13.71 7.382-18.544s11.221-7.251 18.897-7.251c7.09 0 12.759 2.006 17.007 6.02s6.372 9.375 6.372 16.084c0 7.441-2.491 13.565-7.471 18.369-4.98 4.805-11.396 7.207-19.248 7.207-6.943 0-12.502-1.992-16.677-5.976-4.175-3.985-6.262-9.287-6.262-15.909z"/>
        <path d="m113.91 142.25l5.23-33.046h-7.383l1.802-11.338h7.383l1.977-12.876h15.645l-2.066 12.876h7.954l-1.802 11.338h-7.954l-5.185 33.046h-15.601z"/>
        <path d="m177.5 114.78c-0.146-2.403-0.952-4.307-2.417-5.713s-3.398-2.11-5.801-2.11c-2.168 0-4.109 0.689-5.822 2.066-1.714 1.377-3.011 3.296-3.89 5.757h17.93zm-18.984 9.008v1.011c0 2.813 0.718 4.951 2.153 6.416 1.436 1.465 3.53 2.197 6.284 2.197 1.934 0 3.758-0.402 5.471-1.208 1.714-0.806 3.553-2.102 5.516-3.889l8.437 8.525c-2.519 2.403-5.427 4.204-8.723 5.405-3.296 1.202-6.98 1.802-11.052 1.802-7.237 0-12.854-1.926-16.853-5.779-3.999-3.852-5.999-9.25-5.999-16.193 0-7.588 2.38-13.755 7.141-18.501s10.921-7.12 18.479-7.12c6.856 0 12.371 2.095 16.546 6.285 4.174 4.189 6.262 9.741 6.262 16.655 0 0.615-0.088 1.728-0.264 3.34-0.058 0.498-0.102 0.849-0.132 1.054h-33.266z"/>
        <path d="m215.86 120.19c0 3.457 0.901 6.182 2.703 8.174s4.285 2.988 7.449 2.988 5.661-0.996 7.492-2.988 2.747-4.717 2.747-8.174-0.908-6.182-2.725-8.174c-1.816-1.992-4.321-2.988-7.514-2.988-3.164 0-5.647 0.996-7.449 2.988s-2.703 4.717-2.703 8.174zm-13.886 41.66v-63.984h14.414v7.47c1.992-2.988 4.233-5.214 6.723-6.679 2.491-1.465 5.259-2.198 8.306-2.198 6.24 0 11.206 2.132 14.897 6.395 3.692 4.262 5.538 10.041 5.538 17.336 0 7.09-1.839 12.825-5.516 17.205-3.676 4.379-8.474 6.569-14.392 6.569-3.75 0-6.804-0.688-9.162-2.065-2.359-1.377-4.461-3.648-6.306-6.812 0.146 0.879 0.256 1.949 0.329 3.208 0.073 1.26 0.11 2.813 0.11 4.659v18.896h-14.941z"/>
        <path d="m295.14 120.01c0-3.457-0.923-6.196-2.769-8.218-1.846-2.021-4.365-3.032-7.558-3.032-3.194 0-5.706 1.004-7.537 3.01-1.831 2.007-2.747 4.754-2.747 8.24 0 3.457 0.923 6.182 2.769 8.174s4.351 2.988 7.515 2.988c3.193 0 5.712-0.996 7.558-2.988s2.769-4.717 2.769-8.174zm13.755-22.148v44.384h-14.371v-7.207c-2.05 3.077-4.357 5.332-6.921 6.768-2.563 1.436-5.574 2.153-9.031 2.153-5.918 0-10.649-2.16-14.194-6.482-3.545-4.321-5.317-10.114-5.317-17.38 0-7.236 1.853-12.986 5.559-17.248 3.706-4.263 8.694-6.395 14.963-6.395 3.34 0 6.218 0.711 8.635 2.132s4.49 3.611 6.219 6.57v-7.295h14.458z"/>
        <rect x="321.15" y="74.132" width="15.688" height="68.115"/>
    </g>
</svg>
